<?xml version="1.0" encoding="UTF-8" standalone="no"?>
<!-- Created with Inkscape (http://www.inkscape.org/) -->

<svg
   version="1.1"
   id="svg1"
   width="1536"
   height="1024"
   viewBox="0 0 1536 1024"
   sodipodi:docname="ChatGPT_Image_24_feb_2026__12_32_04_a.m.-removebg.png"
   inkscape:export-filename="..\Desktop\logo.png"
   inkscape:export-xdpi="96"
   inkscape:export-ydpi="96"
   xmlns:inkscape="http://www.inkscape.org/namespaces/inkscape"
   xmlns:sodipodi="http://sodipodi.sourceforge.net/DTD/sodipodi-0.dtd"
   xmlns="http://www.w3.org/2000/svg"
   xmlns:svg="http://www.w3.org/2000/svg">
  <defs
     id="defs1" />
  <sodipodi:namedview
     id="namedview1"
     pagecolor="#ffffff"
     bordercolor="#000000"
     borderopacity="0.25"
     inkscape:showpageshadow="2"
     inkscape:pageopacity="0.0"
     inkscape:pagecheckerboard="0"
     inkscape:deskcolor="#d1d1d1">
    <inkscape:page
       x="0"
       y="0"
       width="1536"
       height="1024"
       id="page2"
       margin="0"
       bleed="0" />
  </sodipodi:namedview>
  <g
     inkscape:groupmode="layer"
     inkscape:label="Image"
     id="g1">
    <path
       style="fill:#111111;stroke-width:1.3156"
       d="m 266.58654,712.2584 c -38.84863,-10.88527 -59.68408,-73.02012 -38.356,-114.3841 11.46154,-22.22868 30.80217,-32.61475 76.24793,-40.94578 61.11985,-11.20436 83.05005,-32.90414 67.66098,-66.95004 -17.60252,-38.94279 -153.97668,-34.32783 -174.26385,5.89715 -15.31869,30.37356 -19.18339,145.88221 -6.04333,180.62356 1.36836,3.61789 2.48825,6.75591 2.48862,6.97337 0.001,0.94519 -18.85862,-13.00201 -30.91591,-22.86245 -40.75027,-33.32552 -53.56678,-53.40121 -50.12548,-86.06984 20.36068,-193.28603 27.0633,-254.30993 28.74028,-255.9869 0.22466,-0.22465 4.2933,2.66671 9.04146,6.42523 42.46507,33.61436 53.66539,42.63639 66.21471,53.33686 13.57037,11.5711 14.69791,12.25223 19.08588,11.52949 22.94348,-3.77898 69.50773,-4.1408 94.34964,-0.73309 10.75024,1.47467 10.75024,1.47467 30.91658,-15.72251 50.91692,-43.42025 70.06207,-57.37912 71.12397,-51.85703 0.53067,2.75965 3.61927,24.85022 6.86352,49.09013 3.24425,24.2399 7.96539,59.5117 10.49141,78.38176 12.51419,93.48403 12.8977,118.56202 2.13902,139.87483 -14.92848,29.57316 -68.98263,73.2541 -132.94253,107.43029 -30.7236,16.41678 -40.49597,19.37334 -52.7169,15.94907 z M 544.27085,540.89691 c 0,-50.74615 0,-50.74615 43.08587,-50.28252 60.4712,0.65068 66.15648,3.26642 68.32886,31.43746 2.40006,31.12337 -7.89203,38.23858 -56.48847,39.052 -31.24548,0.523 -23.81857,1.01813 -23.81857,16.02623 0,15.0081 -7.42691,14.51298 -19.2673,14.51298 -11.84039,0 -11.84039,0 -11.84039,-50.74615 z m 72.18987,-1.05733 c 8.26638,-5.44889 7.00394,-25.1676 -2.00942,-28.30968 -25.7411,-8.97338 -38.57763,-0.77316 -38.57763,15.0846 0,15.63403 23.06161,24.77718 40.58705,13.22508 z m 56.73882,1.15292 c 0,-50.65056 0.007,-50.28529 11.16385,-50.65056 15.12487,-0.49512 17.6005,0.49513 17.94813,41.60759 0.34765,41.11247 -6.089,40.61734 32.06337,41.27514 38.15237,0.6578 38.15237,0.6578 38.54138,9.53809 0.38901,8.8803 0.38901,8.8803 -49.66386,8.8803 -50.05287,0 -50.05287,0 -50.05287,-50.65056 z m 108.31803,49.66386 c 0.32681,-0.54269 7.05526,-12.53108 14.95209,-26.64088 43.66254,-78.01474 40.48004,-73.66997 53.9638,-73.67185 12.12624,-0.001 12.12624,-0.001 19.19271,12.1676 10.53505,18.1426 42.34436,75.08636 48.13633,86.17173 1.5466,2.9601 1.5466,2.9601 -12.02497,2.9601 -13.57159,0 -13.57159,0 -18.45391,-9.86699 -4.88232,-9.867 -4.88232,-9.867 -24.95596,-9.86019 -42.63877,0.0145 -44.53159,0.41826 -50.15426,10.69964 -4.93699,9.02754 -4.93699,9.02754 -18.09351,9.02754 -7.23609,0 -12.88914,-0.44402 -12.56232,-0.9867 z m 90.3374,-36.71053 c 0,-1.31092 -19.94449,-37.26673 -21.05099,-37.95058 -0.84733,-0.52368 -22.36377,36.0895 -22.36377,38.05506 0,0.41579 9.76832,0.75598 21.70738,0.75598 11.93906,0 21.70738,-0.38721 21.70738,-0.86046 z m 76.31873,35.11863 c -15.7019,-5.41968 -18.2375,-11.8223 -18.5599,-46.864 -0.4531,-49.26131 2.2178,-51.20072 70.5121,-51.20072 43.4147,0 43.4147,0 43.4147,9.2092 0,9.20919 0,9.20919 -40.1257,9.86699 -53.055,0.86975 -52.3691,12.38107 -51.2306,33.03155 0.9259,16.79329 1.9573,34.4189 39.2275,33.22987 17.4045,-0.55524 32.8637,-3.30598 38.7272,-21.17314 5.1119,-15.57686 -15.8642,-11.77183 -30.1158,2.08672 -30.158,29.32616 -28.3028,-31.60069 11.2011,-31.91139 31.4782,-0.24755 38.3137,13.95738 30.4606,45.14466 -4.6504,18.46848 -59.8392,30.20256 -93.5112,18.58026 z m 141.4129,1.3852 c -18.6462,-4.71317 -23.0429,-14.24651 -22.9908,-49.85081 0.067,-45.78879 5.4856,-50.25691 60.948,-50.25691 57.6962,0 62.6862,4.09007 62.6862,51.38173 0,32.40089 -2.2545,38.76466 -16.445,46.42197 -5.5409,2.98993 -74.0664,4.86506 -84.1984,2.30402 z m 69.8703,-20.14459 c 7.7169,-4.1858 10.8073,-47.24255 3.9349,-54.82527 -7.5189,-8.2962 -63.5406,-7.88938 -70.5162,0.5121 -4.1315,4.97601 -3.2679,44.93891 1.1179,51.72865 3.7886,5.86532 55.6409,7.91247 65.4634,2.58452 z m 51.8226,-29.31257 c 0,-50.65056 0,-50.65056 39.8841,-50.65056 66.1607,0 73.6384,3.53818 73.3494,34.70588 -0.1926,20.7748 -5.117,28.52141 -20.6102,32.4215 -8.6488,2.17719 -8.6488,2.17719 9.2237,17.65584 9.8299,8.51325 17.8725,15.71247 17.8725,15.99828 0,9.42881 -32.9322,-1.47515 -48.0193,-15.89936 -17.1028,-16.35131 -17.1028,-16.35131 -27.6276,-16.4084 -10.5248,-0.0571 -10.5248,-0.0571 -10.0837,-8.61122 0.4413,-8.55416 0.4413,-8.55416 22.4978,-8.55416 30.8612,0 32.9741,-1.0116 32.9741,-15.78719 0,-15.17567 -1.4855,-15.78718 -38.3487,-15.78718 -27.4313,0 -27.4313,0 -27.4313,40.78356 0,40.78357 0,40.78357 -11.8404,40.78357 -11.8404,0 -11.8404,0 -11.8404,-50.65056 z m 133.6748,50.60758 c 0.3267,-0.54269 7.0551,-12.53108 14.952,-26.64088 43.6625,-78.01474 40.4801,-73.66997 53.9638,-73.67185 12.1262,-10e-4 12.1262,-10e-4 19.1927,12.1676 10.5351,18.1426 42.3444,75.08636 48.1363,86.17173 1.5466,2.9601 1.5466,2.9601 -12.0249,2.9601 -13.5716,0 -13.5716,0 -18.454,-9.867 -4.8823,-9.86699 -4.8823,-9.86699 -24.9559,-9.86019 -42.6387,0.0145 -44.5316,0.41827 -50.1542,10.69965 -4.9371,9.02754 -4.9371,9.02754 -18.0936,9.02754 -7.236,0 -12.8892,-0.44402 -12.5622,-0.9867 z m 90.3373,-36.71053 c 0,-1.31093 -19.9445,-37.26673 -21.0509,-37.95058 -0.8474,-0.52369 -22.3639,36.0895 -22.3639,38.05505 0,0.4158 9.7683,0.75599 21.7074,0.75599 11.939,0 21.7074,-0.38721 21.7074,-0.86046 z"
       id="path1"
       sodipodi:nodetypes="sssssscsssssssssssssssssssssssssssssssssscssssssssssssssssssssssssssssssssssssssssssssssssssssscsssssssssssss" />
  </g>
</svg>
