<?xml version="1.0" encoding="UTF-8" standalone="no"?>
<!-- Created with Inkscape (http://www.inkscape.org/) -->

<svg
   version="1.1"
   id="svg1"
   width="1547"
   height="459"
   viewBox="0 0 1547 459"
   sodipodi:docname="logo.svg"
   inkscape:export-filename="..\Desktop\logo.svg"
   inkscape:export-xdpi="96"
   inkscape:export-ydpi="96"
   xmlns:inkscape="http://www.inkscape.org/namespaces/inkscape"
   xmlns:sodipodi="http://sodipodi.sourceforge.net/DTD/sodipodi-0.dtd"
   xmlns="http://www.w3.org/2000/svg"
   xmlns:svg="http://www.w3.org/2000/svg">
  <defs
     id="defs1" />
  <sodipodi:namedview
     id="namedview1"
     pagecolor="#ffffff"
     bordercolor="#000000"
     borderopacity="0.25"
     inkscape:showpageshadow="2"
     inkscape:pageopacity="0.0"
     inkscape:pagecheckerboard="0"
     inkscape:deskcolor="#d1d1d1"
     showguides="true"
     inkscape:lockguides="false">
    <inkscape:page
       x="0"
       y="0"
       width="1547"
       height="459"
       id="page2"
       margin="0"
       bleed="0" />
    <sodipodi:guide
       position="-17.964912,459.6332"
       orientation="0.70710678,-0.70710678"
       id="guide2"
       inkscape:locked="false" />
  </sodipodi:namedview>
  <g
     inkscape:groupmode="layer"
     inkscape:label="Image"
     id="g1">
    <path
       style="fill:#111111;stroke-width:1.46469"
       d="m 181.12989,449.83809 c -43.25099,-12.11879 -66.44753,-81.29482 -42.70253,-127.3462 12.76037,-24.74765 34.29269,-36.31068 84.88842,-45.58579 68.04599,-12.47405 92.46134,-36.63286 75.32837,-74.53687 -19.59725,-43.35583 -171.42545,-38.21789 -194.01158,6.56541 -17.054619,33.81552 -21.357269,162.41371 -6.728161,201.09198 1.52342,4.02787 2.770221,7.52149 2.770631,7.76359 0.001,1.0523 -20.995697,-14.4754 -34.419326,-25.45323 C 20.887585,355.23498 6.6187012,332.8843 10.449975,296.51362 33.11794,81.324256 40.580112,13.385076 42.447124,11.518076 c 0.250118,-0.2501 4.779819,2.9689 10.066049,7.15334 47.277249,37.42357 59.746797,47.46798 73.718217,59.38104 15.10818,12.88235 16.36349,13.64067 21.2487,12.83602 25.54347,-4.20722 77.38441,-4.61004 105.04143,-0.81617 11.96847,1.64178 11.96847,1.64178 34.42006,-17.50419 56.68688,-48.34067 78.00158,-63.8813698 79.1838,-57.73351 0.59082,3.07237 4.02942,27.66626 7.64131,54.65306 3.61189,26.98679 8.86803,66.255624 11.6803,87.264044 13.93232,104.07772 14.35928,131.99758 2.38142,155.72557 -16.62019,32.92442 -76.7998,81.55532 -148.00769,119.60438 -34.20522,18.27714 -45.08501,21.56874 -58.69083,17.75643 z M 490.28162,259.05778 c 0,-56.49675 0,-56.49675 47.9684,-55.98058 67.32385,0.72441 73.65338,3.63657 76.07195,34.99998 2.67204,34.65029 -8.78637,42.57181 -62.8898,43.4774 -34.78624,0.58227 -26.51771,1.13351 -26.51771,17.84234 0,16.70883 -8.26853,16.1576 -21.45068,16.1576 -13.18216,0 -13.18216,0 -13.18216,-56.49674 z m 80.37049,-1.17715 c 9.20313,-6.06636 7.79763,-28.01962 -2.23713,-31.51776 -28.65811,-9.99025 -42.94928,-0.86078 -42.94928,16.794 0,17.40569 25.67497,27.58495 45.18641,14.72376 z m 63.16851,1.28357 c 0,-56.39032 0.008,-55.98367 12.42894,-56.39032 16.83884,-0.55123 19.59501,0.55124 19.98204,46.32259 0.38704,45.77137 -6.77901,45.22013 35.69681,45.95248 42.47583,0.73234 42.47583,0.73234 42.90893,10.61895 0.43309,9.88662 0.43309,9.88662 -55.29181,9.88662 -55.72491,0 -55.72491,0 -55.72491,-56.39032 z m 120.59272,55.29181 c 0.36384,-0.60419 7.85477,-13.95112 16.64647,-29.65985 48.61042,-86.85543 45.06728,-82.01831 60.07903,-82.0204 13.50039,-0.001 13.50039,-0.001 21.36764,13.54644 11.72889,20.19853 47.14286,83.59521 53.59117,95.93678 1.72188,3.29554 1.72188,3.29554 -13.38764,3.29554 -15.10953,0 -15.10953,0 -20.54512,-10.98513 -5.4356,-10.98513 -5.4356,-10.98513 -27.784,-10.97755 -47.47063,0.0161 -49.57794,0.46565 -55.83778,11.91213 -5.49645,10.05055 -5.49645,10.05055 -20.14388,10.05055 -8.05609,0 -14.34975,-0.49433 -13.98589,-1.09851 z M 854.98785,273.5854 c 0,-1.45946 -22.20462,-41.48982 -23.4365,-42.25117 -0.94336,-0.58302 -24.89806,40.17919 -24.89806,42.3675 0,0.4629 10.87528,0.84164 24.16729,0.84164 13.29199,0 24.16727,-0.43109 24.16727,-0.95797 z m 84.96725,39.09831 c -17.48127,-6.03385 -20.30421,-13.16201 -20.66314,-52.17467 -0.50445,-54.84364 2.46912,-57.00282 78.50255,-57.00282 48.33449,0 48.33449,0 48.33449,10.25279 0,10.25278 0,10.25278 -44.6728,10.98513 -59.06716,0.96831 -58.30359,13.7841 -57.03599,36.77471 1.03073,18.69632 2.17908,38.31928 43.67277,36.99551 19.37682,-0.61817 36.58782,-3.68062 43.11572,-23.5725 5.6912,-17.34205 -17.6619,-13.10582 -33.52849,2.32318 -33.57549,32.64943 -31.51009,-35.1817 12.47039,-35.52761 35.0453,-0.2756 42.6554,15.53904 33.9124,50.26049 -5.1774,20.56134 -66.62016,33.62514 -104.1079,20.68579 z m 157.4379,1.54218 c -20.7592,-5.24728 -25.6542,-15.86095 -25.5962,-55.49996 0.074,-50.97761 6.1073,-55.95205 67.8547,-55.95205 64.2344,0 69.7899,4.55355 69.7899,57.20434 0,36.07259 -2.5101,43.1575 -18.3086,51.68255 -6.1688,3.32875 -82.4597,5.41637 -93.7398,2.56512 z m 77.7881,-22.4274 c 8.5913,-4.66014 12.0319,-52.59611 4.3808,-61.03812 -8.3711,-9.23633 -70.7412,-8.7834 -78.5072,0.57014 -4.5997,5.53989 -3.6382,50.03142 1.2445,57.59058 4.218,6.52998 61.9462,8.80912 72.8819,2.8774 z m 57.6951,-32.63429 c 0,-56.39032 0,-56.39032 44.4038,-56.39032 73.658,0 81.9832,3.93912 81.6614,38.63877 -0.2145,23.12902 -5.6969,31.75348 -22.9458,36.09554 -9.6289,2.42391 -9.6289,2.42391 10.269,19.65661 10.9438,9.47798 19.8978,17.49301 19.8978,17.81121 0,10.49729 -36.6641,-1.64231 -53.4609,-17.70108 -19.0409,-18.20426 -19.0409,-18.20426 -30.7584,-18.26782 -11.7175,-0.0636 -11.7175,-0.0636 -11.2264,-9.58705 0.4913,-9.52352 0.4913,-9.52352 25.0474,-9.52352 34.3584,0 36.7107,-1.12623 36.7107,-17.57621 0,-16.89539 -1.6538,-17.57619 -42.6945,-17.57619 -30.5397,0 -30.5397,0 -30.5397,45.40519 0,45.40519 0,45.40519 -13.1823,45.40519 -13.1821,0 -13.1821,0 -13.1821,-56.39032 z m 148.823,56.34247 c 0.3636,-0.60419 7.8545,-13.95111 16.6464,-29.65985 48.6103,-86.85544 45.0672,-82.0183 60.0789,-82.0204 13.5004,-0.001 13.5004,-0.001 21.3677,13.54644 11.7289,20.19854 47.1429,83.59521 53.5911,95.93678 1.7219,3.29554 1.7219,3.29554 -13.3876,3.29554 -15.1096,0 -15.1096,0 -20.5452,-10.98513 -5.4355,-10.98513 -5.4355,-10.98513 -27.7839,-10.97756 -47.4705,0.0161 -49.5779,0.46567 -55.8377,11.91214 -5.4966,10.05055 -5.4966,10.05055 -20.144,10.05055 -8.056,0 -14.3498,-0.49433 -13.9857,-1.09851 z m 100.5744,-40.8706 c 0,-1.45948 -22.2047,-41.48982 -23.4364,-42.25117 -0.9435,-0.58303 -24.8982,40.17919 -24.8982,42.36749 0,0.46291 10.8752,0.84165 24.1673,0.84165 13.2919,0 24.1673,-0.43109 24.1673,-0.95797 z"
       id="path1"
       sodipodi:nodetypes="sssssscsssssssssssssssssssssssssssssssssscssssssssssssssssssssssssssssssssssssssssssssssssssssscsssssssssssss" />
  </g>
</svg>
